<?xml version="1.0" standalone="no"?>
<!DOCTYPE svg PUBLIC "-//W3C//DTD SVG 20010904//EN"
 "http://www.w3.org/TR/2001/REC-SVG-20010904/DTD/svg10.dtd">
<svg version="1.0" xmlns="http://www.w3.org/2000/svg"
 width="512.000000pt" height="512.000000pt" viewBox="0 0 512.000000 512.000000"
 preserveAspectRatio="xMidYMid meet">
<metadata>
Created by potrace 1.14, written by Peter Selinger 2001-2017
</metadata>
<g transform="translate(0.000000,512.000000) scale(0.100000,-0.100000)"
fill="#000000" stroke="none">
<path d="M2947 5115 c-1 -1 -49 -5 -106 -9 -58 -4 -107 -8 -110 -10 -3 -2 -33
-6 -66 -10 -33 -3 -73 -9 -90 -12 -29 -5 -197 -39 -243 -49 -42 -9 -67 -15
-97 -21 -77 -15 -447 -121 -593 -170 -187 -62 -506 -192 -637 -260 -277 -143
-451 -272 -614 -453 -194 -217 -306 -446 -362 -746 -23 -119 -33 -440 -19
-565 5 -36 10 -87 13 -115 10 -86 35 -237 51 -308 9 -37 18 -82 21 -100 12
-68 108 -410 164 -582 220 -677 457 -1090 781 -1360 227 -189 517 -305 830
-332 135 -12 419 -6 520 11 14 3 44 7 68 10 47 6 202 33 242 41 14 4 36 8 50
11 58 12 311 77 390 100 124 37 482 153 505 164 11 5 74 30 140 55 150 58 413
186 525 255 223 138 441 336 553 503 123 183 212 414 233 609 3 29 9 71 13 93
11 60 5 426 -8 525 -7 47 -14 103 -17 125 -3 22 -7 47 -9 55 -2 8 -6 33 -10
55 -11 74 -15 95 -56 258 -105 417 -240 828 -354 1071 -18 39 -47 101 -64 138
-17 37 -36 70 -41 73 -6 3 -10 12 -10 20 0 14 -74 138 -139 231 -117 168 -251
311 -386 411 -84 62 -122 85 -232 137 -208 101 -418 146 -702 150 -72 2 -132
2 -134 1z m-120 -1034 c41 -19 103 -90 103 -118 0 -7 4 -21 10 -31 5 -9 30
-82 56 -162 48 -151 63 -180 97 -180 11 0 102 27 202 59 197 65 234 69 302 34
91 -47 129 -172 81 -263 -14 -25 -39 -55 -57 -67 -18 -12 -110 -48 -204 -79
-173 -56 -201 -70 -210 -103 -2 -10 46 -168 107 -351 91 -273 116 -337 136
-352 25 -18 26 -18 209 42 194 63 246 71 307 45 122 -51 153 -227 57 -316 -39
-37 -46 -40 -240 -103 -116 -39 -177 -64 -187 -77 -17 -25 -15 -34 58 -254 43
-127 56 -180 53 -210 -16 -161 -197 -240 -317 -138 -42 35 -59 71 -124 268
-56 170 -70 195 -112 195 -34 0 -680 -224 -701 -243 -13 -11 -23 -27 -23 -35
0 -9 28 -99 62 -201 64 -194 71 -241 45 -301 -35 -84 -100 -123 -191 -115 -60
5 -88 17 -123 53 -34 34 -45 61 -108 250 -57 173 -72 202 -103 202 -9 0 -91
-25 -182 -55 -188 -63 -221 -70 -284 -61 -61 10 -122 65 -141 131 -20 63 -19
91 5 143 35 77 55 89 277 162 174 58 203 74 203 112 0 15 -64 215 -181 568
-53 158 -45 156 -277 80 -161 -53 -195 -61 -244 -58 -166 12 -232 227 -104
340 21 19 89 47 214 89 100 33 189 67 197 76 8 8 15 23 15 33 0 11 -27 102
-60 202 -34 103 -60 201 -60 223 1 56 39 124 89 160 37 26 51 30 110 30 57 0
74 -4 107 -27 55 -38 68 -64 135 -270 57 -175 74 -207 110 -208 11 0 344 106
344 110 0 0 74 25 165 55 91 30 175 60 187 66 40 21 37 51 -27 246 -33 101
-61 203 -62 226 -2 142 148 237 279 178z"/>
<path d="M2425 2937 c-181 -62 -336 -116 -343 -121 -37 -23 -32 -47 74 -367
57 -173 104 -318 104 -324 1 -25 39 -58 66 -57 16 0 110 28 209 62 99 34 187
63 195 65 48 11 282 94 300 106 13 9 23 25 23 40 0 35 -212 670 -231 692 -8 9
-27 17 -41 16 -14 0 -174 -51 -356 -112z"/>
</g>
</svg>
